# xmcd
#
# Track frame offsets: 
#        150
#        19029
#        41753
#        70818
#        83001
#        103113
#        129412
#        140177
#        165233
#        179520
#        205702
#        218899
#        237350
#        250463
#        268553
#
# Disc length: 4032 seconds
#
# Revision: 1
# Processed by: cddbd v1.5.2PL0 Copyright (c) Steve Scherf et al.
# Submitted via: ExactAudioCopy v0.95b3
#
DISCID=d60fbe0f
DTITLE=Billy's Band - Игры в Тома Уэйтса
DYEAR=2005
DGENRE=Jazz
TTITLE0=So Long I'll see yA
TTITLE1=Clap hAnds
TTITLE2=Chocolate Jesus
TTITLE3=Temptation
TTITLE4=TAngo till  they're sore
TTITLE5=Cold ground
TTITLE6=I'll be gone
TTITLE7=I'll shoot the moon
TTITLE8=Ice creAm man
TTITLE9=Gunstreet girl
TTITLE10=Down in A Hole
TTITLE11=More thAn rain
TTITLE12=Jockey full of bourbon
TTITLE13=ReeperbAhn
TTITLE14=Blue Valentines
EXTD=YEAR: 2005
EXTT0=
EXTT1=
EXTT2=
EXTT3=
EXTT4=
EXTT5=
EXTT6=
EXTT7=
EXTT8=
EXTT9=
EXTT10=
EXTT11=
EXTT12=
EXTT13=
EXTT14=
PLAYORDER=
